<?xml version="1.0" encoding="UTF-8"?>
<svg id="Layer_1" xmlns="http://www.w3.org/2000/svg" version="1.1" viewBox="0 0 2500 1593">
  <!-- Generator: Adobe Illustrator 29.5.0, SVG Export Plug-In . SVG Version: 2.1.0 Build 137)  -->
  <defs>
    <style>
      .st0, .st1 {
        fill: #0d5581;
      }

      .st1 {
        display: none;
      }

      .st2 {
        fill: #aad137;
      }
    </style>
  </defs>
  <rect class="st1" y="852" width="2500" height="1250"/>
  <g>
    <path class="st2" d="M339.67,1059.6c-40.26,0-70.93-11.64-92.03-34.93-21.1-23.29-31.64-57-31.64-101.13s10.51-77.8,31.55-101.03c21.03-23.23,51.74-34.84,92.13-34.84s70.77,11.65,91.93,34.93c21.16,23.29,31.74,56.93,31.74,100.93s-10.55,77.84-31.64,101.13c-21.1,23.29-51.77,34.93-92.03,34.93ZM339.67,1030.96c29.81,0,52.22-8.93,67.26-26.81,15.03-17.87,22.55-44.74,22.55-80.61,0-71.61-29.93-107.42-89.8-107.42s-90,35.81-90,107.42,30,107.42,90,107.42Z"/>
    <path class="st2" d="M650.5,939.03c0-18.19-4.03-31.26-12.1-39.19-8.07-7.94-21.19-11.9-39.39-11.9h-51.1v167.22h-30.97v-193.35h85.16c27.61,0,47.74,6.32,60.39,18.97,12.64,12.65,18.97,32.71,18.97,60.19v114.19h-30.97v-116.13Z"/>
    <path class="st2" d="M774.37,791.93v263.22h-30.97v-263.22h30.97Z"/>
    <path class="st2" d="M869.79,791.93v43.93h-30.97v-43.93h30.97ZM869.79,861.8v193.35h-30.97v-193.35h30.97Z"/>
    <path class="st2" d="M1067.78,939.03c0-18.19-4.03-31.26-12.1-39.19-8.07-7.94-21.19-11.9-39.39-11.9h-51.1v167.22h-30.97v-193.35h85.16c27.61,0,47.74,6.32,60.39,18.97,12.64,12.65,18.97,32.71,18.97,60.19v114.19h-30.97v-116.13Z"/>
    <path class="st2" d="M1243.13,1055.15c-32.52,0-56.77-8-72.77-24-16-16-24-40.26-24-72.77s7.93-56.74,23.81-72.68c15.87-15.93,40.06-23.9,72.58-23.9h51.48v25.35h-49.93c-20.9,0-36.84,4.52-47.81,13.55-10.97,9.03-17.1,23.23-18.39,42.58h113.8v24.58h-113.8c.39,20.39,5.84,35.81,16.35,46.26,10.52,10.45,27.13,15.68,49.84,15.68h51.48v25.35h-52.64Z"/>
    <path class="st2" d="M1509.44,985.86l-25.74,69.29h-34.06l102.19-263.22h38.13l102.19,263.22h-35.22l-25.74-69.29h-121.74ZM1620.92,957.61l-50.71-137.03-50.71,137.03h101.42Z"/>
    <path class="st2" d="M1801.69,1055.15c-18.45,0-33.45-2.77-45-8.32-11.55-5.55-20.06-14.16-25.55-25.84-5.48-11.68-8.22-26.74-8.22-45.19v-114h30.77v116.13c0,12.26,1.74,22.1,5.23,29.52,3.48,7.42,8.97,12.87,16.45,16.35,7.48,3.48,17.35,5.23,29.61,5.23h48.97v-167.22h30.97v193.35h-83.22Z"/>
    <path class="st2" d="M2015.17,1055.15c-18.71,0-32.32-4.26-40.84-12.77-8.52-8.52-12.78-22.06-12.78-40.64v-114.19h-32.9v-25.74h32.9v-49.93h30.97v49.93h71.03v25.74h-71.03v113.22c0,10.58,2.16,18.07,6.48,22.45,4.32,4.39,11.71,6.58,22.16,6.58h41.22v25.35h-47.22Z"/>
    <path class="st2" d="M2188.97,1058.25c-30.71,0-54.26-8.45-70.65-25.35-16.39-16.9-24.58-41.74-24.58-74.51s8.19-57.61,24.58-74.51c16.38-16.9,39.93-25.35,70.65-25.35s54.06,8.45,70.45,25.35c16.38,16.9,24.58,41.74,24.58,74.51s-8.2,57.61-24.58,74.51c-16.39,16.9-39.87,25.35-70.45,25.35ZM2188.97,1032.12c42.19,0,63.29-24.58,63.29-73.74s-21.1-73.74-63.29-73.74-63.48,24.58-63.48,73.74,21.16,73.74,63.48,73.74Z"/>
  </g>
  <g>
    <path class="st0" d="M316.71,1354.56l-17.42,51.1h-70.45l101.42-263.22h76.06l101.42,263.22h-72l-17.42-51.1h-101.61ZM399.94,1300.56l-32.52-96.19-32.52,96.19h65.03Z"/>
    <path class="st0" d="M618.51,1142.43v69.87h46.84c31.35,0,55.32,8.29,71.9,24.87,16.58,16.58,24.87,40.48,24.87,71.71s-8.29,55.32-24.87,71.9c-16.58,16.58-40.55,24.87-71.9,24.87h-110.9v-263.22h64.06ZM647.15,1358.04c17.03,0,29.48-3.93,37.35-11.81,7.87-7.87,11.81-20.32,11.81-37.35s-3.94-29.48-11.81-37.35c-7.87-7.87-20.32-11.81-37.35-11.81h-28.64v98.32h28.64Z"/>
    <path class="st0" d="M1055.4,1290.69c0-10.32-2.32-17.77-6.97-22.35-4.64-4.58-12.13-6.87-22.45-6.87h-22.26v144.19h-64.06v-144.19h-51.68v144.19h-64.06v-193.35h214.83c18.84,0,34.16,2.84,45.97,8.52,11.81,5.68,20.55,14.42,26.23,26.22,5.68,11.81,8.52,27.13,8.52,45.97v112.64h-64.06v-114.96Z"/>
    <path class="st0" d="M1275.71,1405.65c-31.23,0-55.16-8.29-71.8-24.87-16.64-16.58-24.97-40.55-24.97-71.9s8.32-55.13,24.97-71.71c16.65-16.58,40.58-24.87,71.8-24.87h82.45v47.42h-72.97c-13.55,0-23.36,2.1-29.42,6.29-6.07,4.19-9.74,10.55-11.03,19.06h111.87v46.84h-111.87c.9,8.13,4.52,14.52,10.84,19.16,6.32,4.65,16.19,6.97,29.61,6.97h74.51v47.61h-84Z"/>
    <path class="st0" d="M1491.18,1142.43v263.22h-64.06v-263.22h64.06Z"/>
    <path class="st0" d="M1649.76,1405.65c-31.23,0-55.16-8.29-71.8-24.87-16.64-16.58-24.97-40.55-24.97-71.9s8.32-55.13,24.97-71.71c16.64-16.58,40.58-24.87,71.8-24.87h46.84v-69.87h64.26v263.22h-111.09ZM1667.95,1259.72c-17.03,0-29.48,3.94-37.35,11.81-7.87,7.87-11.81,20.32-11.81,37.35s3.93,29.48,11.81,37.35c7.87,7.87,20.32,11.81,37.35,11.81h28.64v-98.32h-28.64Z"/>
    <path class="st0" d="M1919.23,1405.65c-31.23,0-55.16-8.29-71.8-24.87-16.64-16.58-24.97-40.55-24.97-71.9s8.32-55.13,24.97-71.71c16.64-16.58,40.58-24.87,71.8-24.87h82.45v47.42h-72.97c-13.55,0-23.35,2.1-29.42,6.29-6.07,4.19-9.75,10.55-11.03,19.06h111.87v46.84h-111.87c.9,8.13,4.51,14.52,10.84,19.16,6.32,4.65,16.19,6.97,29.61,6.97h74.51v47.61h-84Z"/>
    <path class="st0" d="M2206.9,1293.01c0-11.1-2.52-19.13-7.55-24.1-5.03-4.97-13.1-7.45-24.19-7.45h-40.45v144.19h-64.06v-193.35h119.61c18.84,0,34.19,2.84,46.06,8.52,11.87,5.68,20.64,14.42,26.32,26.22,5.67,11.81,8.52,27.13,8.52,45.97v112.64h-64.26v-112.64Z"/>
  </g>
  <g>
    <g>
      <g>
        <path class="st0" d="M1399.69,335.38c-21.89,0-37.37-1.07-52.61.26-29.27,2.53-51.49-7.15-71.98-29.09-36.98-39.59-114.55-38.9-153.32-.28-62.17,61.81-123.65,124.28-190.56,191.69,5.85-46.46.66-85.26-32.64-109.19-20.71-14.84-48.94-26.15-74.02-26.59-65.33-1.17-102.65,51.13-98.82,131.77h-106.79c10.57-27.23,20.51-52.84,30.47-78.44,3.42-8.79,6.77-17.6,10.17-26.38l12.13-31.01,24.9-63.57h132.51c57.8-.15,115.57-.28,173.37.49,24.65.31,46.79-4.96,59.74-25.16,46.23-72.05,116.67-72.61,189.52-66.97,8.53.66,18.8,3.86,24.67,9.58,40.15,38.92,79.33,78.85,123.26,122.9Z"/>
        <path class="st0" d="M671.72,358.11l-12.13,31.01c3.98-10.37,7.97-20.71,12.13-31.01Z"/>
        <path class="st0" d="M828.01,553.65c-50.31-.42-88.11-40.01-87.35-91.49.71-48.6,40.83-87.41,89.66-86.73,48.39.67,87.67,40.42,88.01,89.06.35,49.51-40.24,89.59-90.31,89.16ZM877.68,465.04c.28-26.06-21.85-48.29-48.13-48.34-26.69-.05-48.85,21.47-48.99,47.57-.14,25.94,21.82,47.92,48.28,48.32,26.32.4,48.56-21.25,48.84-47.55Z"/>
      </g>
      <path class="st0" d="M1560.17,529.16c-3.85,5.6-7.24,15.9-13.85,18.74-7.69,3.31-21.74,3.9-26.88-.9-35.53-33.24-70.23-67.49-103.09-103.35-5.06-5.52-3.19-24.62,2.59-30.78,5.6-5.97,25.03-8.49,30.33-3.66,36.63,33.32,71.26,68.85,106.15,104.05,2.75,2.77,2.63,8.38,4.75,15.91Z"/>
      <path class="st0" d="M1418.58,575.72c-5.57,6.77-9.85,16.8-16.72,19.09-8.21,2.74-22,2.45-27.53-2.75-34.36-32.28-67.99-65.48-99.49-100.5-5.56-6.18-4.31-26.81,1.7-32.72,6.1-6,26.64-7.16,32.83-1.57,34.93,31.59,67.61,65.69,100.58,99.4,4.02,4.11,5.14,11.05,8.63,19.04Z"/>
      <path class="st0" d="M1220.69,469.66c10.06,6.45,18.47,10.11,24.63,16.09,29.26,28.42,58,57.36,86.72,86.34,12.73,12.84,20.05,27.88,4.31,42.49-13.94,12.95-28.11,7.44-40.52-5.03-29.41-29.55-59.8-58.18-88.04-88.8-6.61-7.17-9.6-21.31-7.97-31.21,1.18-7.16,12.75-12.6,20.88-19.87Z"/>
      <path class="st0" d="M1489.4,551.89c-4.95,6.35-9.32,17.11-16.79,20.1-7.58,3.04-21.45,1.84-27.02-3.4-34.25-32.21-67.85-65.27-99.28-100.2-5.48-6.09-3.58-25.42,2.26-32.94,4.45-5.75,25.12-7.54,30.65-2.46,35.94,33,69.81,68.27,104.03,103.11,2.83,2.88,3.27,8.09,6.16,15.79Z"/>
    </g>
    <g>
      <path class="st2" d="M1149.76,471.28c-7.04,5.57-14.64,10.57-21.03,16.81-24.64,24.09-48.93,48.54-73.27,72.93-13.22,13.24-28.05,23.62-44.17,6.5-15.71-16.69-5.4-31.4,7.99-44.56,23.28-22.89,46.42-45.91,69.32-69.18,7.16-7.28,13.35-15.52,19.99-23.32-1.86-2.11-3.72-4.22-5.57-6.32-6.99,5.49-14.58,10.38-20.88,16.58-32.92,32.44-65.5,65.23-98.23,97.86-13.34,13.3-27.97,22.69-44.23,5.36-15.05-16.04-5.68-29.76,6.83-42.26,64.17-64.09,128.13-128.4,192.59-192.19,19.8-19.6,95.25-26,111.59-5.09,36.11,46.22,83.82,47.87,134.64,45.15,12.55-.67,25.16-.1,37.74-.1,1.39-2.23,2.78-4.45,4.17-6.68-44.52-44.95-89.04-89.89-136.52-137.82,50.92-5.2,96.54-10.18,128.93,35.13,31.76,44.43,74.17,57.81,129.06,55.15,95.04-4.61,190.47-1.28,285.74-1.28,13.4,0,26.8,0,46.59,0-25.28,61.64-47.81,119.59-73.28,176.22-5.28,11.75-21.49,18.58-35.64,25.69,2.18-42.16-2.96-80.69-35.39-105.82-18.91-14.66-44.86-25.94-68.47-27.71-63.64-4.79-97.6,38.3-107.23,133.44-24.18-23.54-45.78-44.54-67.34-65.59-6.49-6.34-12.84-12.81-19.25-19.23-32.07-32.17-54.14-29.5-80.04,9.7-37.38-14.21-46.26-11.43-72.34,22.67-38.69-13.59-46.85-10.8-71.65,24.5-46.86-18.74-70.82-1.55-65.83,47.08.42,4.05.98,9.84-1.27,12.14-22.16,22.68-43.77,46.19-68.28,66.09-6.12,4.97-26.63,1.63-32.32-4.97-5.61-6.5-5.4-25.54.28-32.84,16.03-20.61,36.28-37.9,54.63-56.74,6.43-6.6,12.17-13.87,18.22-20.83-2.04-2.15-4.07-4.3-6.11-6.46Z"/>
      <path class="st2" d="M1755.99,464.27c.04,49.95-39.44,89.75-89.11,89.83-49.61.08-90.08-39.82-90.34-89.06-.25-49.02,40.27-89.81,89.6-90.2,49.3-.39,89.81,39.93,89.85,89.43ZM1666.31,511.88c25.75.36,46.58-19.49,47.78-45.53,1.2-26.06-20.75-48.64-47.4-48.75-25.83-.11-47.02,20.11-47.81,45.61-.83,26.82,20.09,48.29,47.43,48.67Z"/>
      <path class="st2" d="M1199.71,532.13c12.09,12.76,22.53,23.78,40.85,43.12-17.77,14.12-33.3,29.47-51.67,39.75-8.7,4.87-28.81,4.39-33.05-1.44-5.89-8.11-6.42-26.57-.86-35.15,10.57-16.28,27.09-28.69,44.73-46.27Z"/>
    </g>
  </g>
</svg>