<svg xmlns="http://www.w3.org/2000/svg" xmlns:xlink="http://www.w3.org/1999/xlink" width="512" height="512" x="0" y="0" viewBox="0 0 24 24" style="enable-background:new 0 0 512 512" xml:space="preserve" class=""><g><g data-name="Layer 2"><path fill="#aad137" d="M22.46 11.61a1.726 1.726 0 0 1-1.63 1.14h-1.08V21A1.758 1.758 0 0 1 18 22.75H6A1.758 1.758 0 0 1 4.25 21v-8.25H3.17a1.75 1.75 0 0 1-1.14-3.07L10.85 2a1.784 1.784 0 0 1 2.3 0l8.82 7.68a1.72 1.72 0 0 1 .49 1.93z" opacity="1" data-original="#0db561" class=""></path><path fill="#95b92a" d="M15.25 18.5v4.25h-6.5V18.5a3.25 3.25 0 0 1 6.5 0z" opacity="1" data-original="#1c5e3f" class=""></path></g></g></svg>