<svg xmlns="http://www.w3.org/2000/svg" xmlns:xlink="http://www.w3.org/1999/xlink" width="512" height="512" x="0" y="0" viewBox="0 0 512 512" style="enable-background:new 0 0 512 512" xml:space="preserve" class=""><g><g fill="#5ea570"><path d="m180.584 38.633-23.34 4.54c-16.444 3.199-25.339 19.435-18.216 33.252l47.632 73.334L256 93.683zM331.416 38.633l23.34 4.54c16.444 3.199 25.339 19.435 18.217 33.252l-47.632 73.334L256 93.683z" fill="#5ea570" opacity="1" data-original="#5ea570"></path></g><path fill="#528e61" d="m163.383 41.979 32.835 100.05L256 93.683l-75.416-55.05zM256 93.683l59.782 48.346 32.835-100.05-17.201-3.346z" opacity="1" data-original="#528e61"></path><path fill="#8bc852" d="M296.982 149.759h-81.964l-37.97-115.698C171.537 17.271 184.046 0 201.718 0h108.564c17.672 0 30.181 17.271 24.67 34.061z" opacity="1" data-original="#8bc852" class=""></path><path fill="#7dbe3b" d="M310.282 0h-21.479c17.672 0 30.181 17.271 24.67 34.061l-37.971 115.698h21.479l37.97-115.698C340.463 17.271 327.954 0 310.282 0z" opacity="1" data-original="#7dbe3b" class=""></path><path fill="#cbe7af" d="m449.545 464.053-4.47-4.47c-3.625-3.625-4.435-9.149-2.142-13.734 6.445-12.887 10.027-28.189 10.027-46.349 0-96.37-100.589-278.951-196.96-278.951S59.04 303.129 59.04 399.5c0 18.159 3.581 33.461 10.026 46.349 2.293 4.585 1.483 10.109-2.142 13.734l-4.47 4.47c-10.969 10.969-10.969 28.752 0 39.721 10.969 10.969 28.752 10.969 39.721 0l10.394-10.394a7.742 7.742 0 0 1 8.57-1.609C158.361 507.941 207.706 512 256 512s97.639-4.059 134.861-20.229a7.74 7.74 0 0 1 8.57 1.609l10.394 10.394c10.969 10.969 28.752 10.969 39.721 0 10.968-10.969 10.968-28.753-.001-39.721z" opacity="1" data-original="#cbe7af" class=""></path><path fill="#aad880" d="m449.1 463.607-4.024-4.025c-3.625-3.625-4.435-9.149-2.142-13.734 6.445-12.887 10.026-28.189 10.026-46.348 0-62.785-42.697-162.158-99.104-223.799-25.258-27.594-60.287-55.151-97.856-55.151-4.337 0-8.682.376-13.026 1.091 12.84 2.113 25.67 7.249 38.245 14.761h-76.505c-17.54 10.481-34.582 25.597-50.459 43.635 1.4.279 2.846.43 4.328.43h141.131c21.519 0 41.795 10.307 54.279 27.835 42.92 60.265 72.915 138.577 72.915 191.199 0 18.159-3.581 33.461-10.026 46.348-2.293 4.585-1.483 10.109 2.142 13.734l4.05 4.05c10.982 10.982 11.467 28.937.563 39.997a28.092 28.092 0 0 1-6.977 5.175c10.608 5.556 24.021 3.867 32.923-5.067 11.006-11.049 10.544-29.103-.483-40.131z" opacity="1" data-original="#aad880" class=""></path><path fill="#5ea570" d="M239.128 132.624a7.728 7.728 0 0 1-7.544-6.095l-9.132-42.196a7.726 7.726 0 0 1 5.917-9.185 7.722 7.722 0 0 1 9.185 5.918l9.132 42.196a7.725 7.725 0 0 1-5.918 9.185 7.672 7.672 0 0 1-1.64.177zM263.867 132.624a7.725 7.725 0 0 1-7.558-9.362l9.132-42.196c.901-4.17 5.017-6.823 9.185-5.918a7.726 7.726 0 0 1 5.918 9.185l-9.132 42.196a7.732 7.732 0 0 1-7.545 6.095z" opacity="1" data-original="#5ea570"></path><path fill="#8bc852" d="M212.959 188.194a7.726 7.726 0 0 1-6.811-11.363l16.369-30.707a7.725 7.725 0 0 1 10.453-3.183 7.726 7.726 0 0 1 3.183 10.453l-16.369 30.707a7.726 7.726 0 0 1-6.825 4.093zM290.036 188.194a7.725 7.725 0 0 1-6.825-4.094l-16.37-30.707a7.727 7.727 0 0 1 13.636-7.27l16.37 30.707a7.727 7.727 0 0 1-3.183 10.453 7.674 7.674 0 0 1-3.628.911z" opacity="1" data-original="#8bc852" class=""></path><g fill="#7dbe3b"><path d="M232.97 142.941a7.726 7.726 0 0 0-10.453 3.183l-16.369 30.707a7.693 7.693 0 0 0-.907 3.635h16.481l14.432-27.073a7.726 7.726 0 0 0-3.184-10.452zM280.477 146.124a7.725 7.725 0 0 0-10.453-3.183 7.726 7.726 0 0 0-3.183 10.453l14.433 27.073h16.481a7.693 7.693 0 0 0-.907-3.635z" fill="#7dbe3b" opacity="1" data-original="#7dbe3b" class=""></path></g><path fill="#1f2d3e" d="M347.765 160.494H158.583c-12.168 0-22.033-9.864-22.033-22.033 0-12.168 9.864-22.033 22.033-22.033h189.182c12.168 0 22.033 9.864 22.033 22.033-.001 12.169-9.865 22.033-22.033 22.033z" opacity="1" data-original="#544f57" class=""></path><path fill="#2a3d53" d="M347.765 116.429h-27.211c12.168 0 22.032 9.864 22.032 22.033 0 12.168-9.864 22.033-22.032 22.033h27.211c12.168 0 22.033-9.864 22.033-22.033-.001-12.169-9.865-22.033-22.033-22.033z" opacity="1" data-original="#454045" class=""></path><circle cx="256" cy="326.577" r="96.889" fill="#5ea570" opacity="1" data-original="#5ea570"></circle><path fill="#528e61" d="M256 229.688a97.7 97.7 0 0 0-13.542.962c47.096 6.59 83.347 47.015 83.347 95.927s-36.251 89.337-83.347 95.927c4.427.62 8.944.962 13.542.962 53.51 0 96.889-43.379 96.889-96.889S309.51 229.688 256 229.688z" opacity="1" data-original="#528e61"></path><path fill="#f9f6f9" d="M268.929 318.715a309.72 309.72 0 0 1-5.837-2.123v-32.249c4.624 1.28 7.37 3.594 7.637 3.826 3.141 2.837 7.987 2.623 10.86-.494a7.725 7.725 0 0 0-.441-10.917c-.404-.374-7.096-6.394-18.056-8.206v-6.307a7.725 7.725 0 0 0-7.726-7.726 7.725 7.725 0 0 0-7.726 7.726v6.879c-.906.211-1.821.443-2.756.724-10.368 3.124-18.114 11.989-20.215 23.138-1.92 10.186 1.357 20.02 8.552 25.664 3.679 2.886 8.23 5.53 14.419 8.308v41.391c-5.223-.467-8.698-1.856-14.495-5.647a7.726 7.726 0 0 0-8.459 12.931c8.958 5.86 15.143 7.701 22.954 8.209v7.066a7.725 7.725 0 0 0 7.726 7.726 7.725 7.725 0 0 0 7.726-7.726v-7.71c15.882-3.353 25.166-16.553 27.24-28.893 2.702-16.068-5.7-30.038-21.403-35.59zm-26.171-12.224c-2.599-2.038-3.738-6.215-2.904-10.643.723-3.832 3.146-8.388 7.786-10.546v24.388c-1.819-1.03-3.475-2.095-4.882-3.199zm32.335 45.253c-1.016 6.047-5.091 12.457-12.001 15.304V333.04c.232.082.451.163.686.246 12.629 4.463 11.853 15.256 11.315 18.458z" opacity="1" data-original="#f9f6f9" class=""></path></g></svg>