<svg xmlns="http://www.w3.org/2000/svg" xmlns:xlink="http://www.w3.org/1999/xlink" width="512" height="512" x="0" y="0" viewBox="0 0 512 512" style="enable-background:new 0 0 512 512" xml:space="preserve" class=""><g><path fill="#0d5581" d="M420.599 512H47.593V35.042h373.006z" opacity="1" data-original="#b5ceff" class=""></path><path fill="#d9f1ff" d="m464.407 476.958-123.996-38.126-182.833-15.948c-38.268-6.744-66.177-40.072-66.177-79.028V0h373.006z" opacity="1" data-original="#e9f2ff" class=""></path><path fill="#d9f1ff" d="M412.898 0v467.88l51.509 9.078V0z" opacity="1" data-original="#deebff" class=""></path><path fill="#1871a8" d="m159.54 422.957 304.866 54.001L227.38 332.527s3.159 90.43-67.84 90.43z" opacity="1" data-original="#91a8dd" class=""></path><g fill="#91a8dd"><path d="M159.981 85.99h235.845a7.726 7.726 0 1 0 0-15.452H159.981a7.726 7.726 0 1 0 0 15.452zM395.826 118.177H159.981a7.726 7.726 0 1 0 0 15.452h235.845a7.726 7.726 0 1 0 0-15.452zM395.826 165.815H159.981a7.726 7.726 0 1 0 0 15.452h235.845a7.726 7.726 0 1 0 0-15.452zM395.826 213.454H159.981a7.726 7.726 0 1 0 0 15.452h235.845a7.726 7.726 0 1 0 0-15.452z" fill="#1871a8" opacity="1" data-original="#91a8dd" class=""></path></g></g></svg>